<svg width="398" height="178" viewBox="0 0 398 178" fill="none" xmlns="http://www.w3.org/2000/svg">
<path d="M107.581 116.755C90.305 116.151 76.182 106.941 69.897 92.181L69.259 90.683H145.711C171.385 90.683 194.157 100.042 209.952 116.755H107.581Z" fill="#FF6452" fill-opacity="0.7"/>
<path d="M192.154 102.694H98.478C86.843 102.288 76.65 97.964 69.306 90.683H69.259L69.897 92.181C76.182 106.941 90.305 116.151 107.581 116.755H209.952C204.735 111.236 198.745 106.537 192.154 102.694Z" fill="#FF6452"/>
<path d="M70.929 94.379C78.076 100.547 87.486 104.19 98.106 104.561H195.186C194.189 103.921 193.181 103.294 192.154 102.694H98.478C86.843 102.288 76.65 97.964 69.306 90.683H69.259L69.897 92.181C70.216 92.932 70.57 93.658 70.929 94.379Z" fill="white"/>
<path d="M30.081 124.775C62.604 165.829 98.087 171.594 143.621 171.98L279.21 173.129L278.101 170.462C267.177 144.19 242.267 127.643 211.637 126.313L114.321 125.488C83.528 125.227 54.913 117.018 31.257 101.658L0 81.3619C0 81.3619 21.897 114.445 30.081 124.775Z" fill="#FF6452"/>
<path d="M131.33 150.792C85.796 150.406 50.314 144.641 17.79 103.587C15.368 100.53 11.744 95.4769 7.84399 89.8839C6.29899 87.5889 4.916 85.5229 3.774 83.8139L0 81.3629C0 81.3629 3.067 85.9969 7.334 92.3369C11.234 97.9309 14.858 102.984 17.28 106.04C49.803 147.094 85.286 152.859 130.82 153.245L268.803 154.415C268.149 153.569 267.464 152.753 266.774 151.941L131.33 150.792Z" fill="white"/>
<path d="M373.017 145.713C349.368 143.128 338.233 127.667 328.347 107.978C318.528 88.439 310.364 65.406 315.638 43.46C315.827 42.651 315.072 42.028 314.386 41.873C307.546 40.371 295.803 39.5849 289.843 43.7799C286.664 46.0089 285.082 48.527 283.958 52.209C282.936 55.586 286.501 58.6449 284.63 58.2389C277.79 56.7219 271.377 53.302 265.7 49.297C258.558 44.281 236.213 19.166 248.047 11.315C250.74 9.52995 255.712 4.31496 252.494 0.951956C249.984 -1.67504 243.924 1.85095 241.645 2.95495C219.392 13.718 199.855 34.352 186.882 54.988C185.019 57.396 183.159 59.811 181.294 62.225C181.227 62.306 181.216 62.383 181.172 62.455C181.155 62.491 181.125 62.511 181.1 62.548C174.823 75.236 189.362 86.801 198.098 93.648C215.637 107.409 236.052 116.91 254.582 129.16C279.2 145.446 298.535 167.546 328.022 175.318C349.098 180.866 390.584 176.707 397.767 155.103C400.483 146.939 376.109 146.052 373.017 145.713ZM314.264 167.619C291.709 158.233 274.733 139.07 254.632 125.769C240.466 116.412 225.311 108.61 211.081 99.324C201.351 92.981 176.758 78.337 183.667 63.817C184.925 62.202 186.166 60.598 187.407 58.985C191.16 68.717 206.512 76.716 213.641 80.978C227.08 88.998 241.321 95.258 254.196 104.261C265.064 111.862 274.428 121.325 283.592 130.844C292.256 139.855 300.454 150.77 311.666 156.783C322.576 162.634 334.209 164.86 346.444 166.087C363.804 167.827 390.42 160.052 392.696 159.558C372.957 174.416 335.812 176.581 314.264 167.619Z" fill="#FF6452" fill-opacity="0.7"/>
<path d="M313.523 171.352C290.859 162.232 271.229 139.069 251.128 125.768C236.962 116.411 221.807 108.609 207.577 99.3229C197.847 92.9799 173.254 78.3359 180.163 63.8159C181.421 62.2009 182.662 60.5969 183.903 58.9839C187.656 68.7159 203.008 76.7149 210.137 80.9769C223.576 88.9969 237.817 95.2569 250.692 104.26C261.56 111.861 270.924 121.324 280.088 130.843C288.752 139.854 296.95 150.769 308.162 156.782C319.072 162.633 333.146 168.419 352.076 167.804C373.371 167.112 394.065 158.879 396.342 158.384C380.926 183.164 335.659 180.26 313.523 171.352Z" fill="#FF6452"/>
<path d="M237.731 16.4919C237.731 16.4919 238.343 35.6159 253.364 48.2339C268.385 60.8519 283.195 61.756 283.195 61.756C283.195 61.756 271.832 63.1209 255.008 52.3049C238.185 41.4899 235.365 21.9269 237.731 16.4919Z" fill="white"/>
</svg>
